Coordinates
version=1
nRows=6
nColumns=36
inDegrees=yes

Units are S.I. units (second, meters, Newtons, ...)
If the header above contains a line with 'inDegrees', this indicates whether rotational values are in degrees (yes) or radians (no).

endheader
time	pelvis_tilt	pelvis_list	pelvis_rotation	pelvis_tx	pelvis_ty	pelvis_tz	hip_flexion_r	hip_adduction_r	hip_rotation_r	knee_angle_r	knee_angle_r_beta	ankle_angle_r	subtalar_angle_r	mtp_angle_r	hip_flexion_l	hip_adduction_l	hip_rotation_l	knee_angle_l	knee_angle_l_beta	ankle_angle_l	subtalar_angle_l	mtp_angle_l	lumbar_extension	lumbar_bending	lumbar_rotation	arm_flex_r	arm_add_r	arm_rot_r	elbow_flex_r	pro_sup_r	arm_flex_l	arm_add_l	arm_rot_l	elbow_flex_l	pro_sup_l
      6.00000000	    -10.86424667	      0.16315361	    -22.65042437	     -0.35673123	      1.21135312	     -0.04286624	     10.51634627	      3.62171343	     22.94514148	      1.34811142	      0.02352898	      7.05375838	     -4.48507310	     -7.49999987	      7.76027609	     -2.89179784	    -11.87340904	      2.06208319	      0.03599014	     12.04546994	     -6.74676768	     -7.49999987	      7.94648471	      1.60880086	    -14.20814698	      1.62221698	     -5.36463106	     18.04748023	     27.18603033	     80.40617793	      1.10864910	     -9.52326389	     26.38910404	     23.35313961	     74.10747887
      6.01666670	    -10.85923409	      0.32658996	    -22.53833311	     -0.36398680	      1.21041416	     -0.04589830	     10.57064800	      3.42804648	     23.24698427	      1.09247898	      0.01906736	      7.27467833	     -4.06200055	     -7.49999987	      7.65931512	     -2.65934754	    -11.90145172	      1.65411526	      0.02886976	     11.91456696	     -6.35671949	     -7.49999987	      8.01090876	      1.43263841	    -13.83970246	      1.57671799	     -5.45043207	     18.23820296	     27.49145527	     80.66030169	      1.23616060	     -9.61132395	     26.27035191	     23.39231388	     74.19048649
      6.03333330	    -10.72420963	      0.42890966	    -22.29459955	     -0.36414303	      1.21002592	     -0.04613309	     10.46413094	      3.23983746	     23.72557937	      0.84576565	      0.01476140	      7.64605437	     -3.75609088	     -7.49999987	      7.56876969	     -2.46486577	    -11.95017923	      1.46441864	      0.02555893	     11.92199013	     -5.92709629	     -7.49999987	      7.85105199	      1.27462704	    -13.63170907	      1.65410393	     -5.60080891	     19.28312359	     27.78524847	     79.19282034	      1.38391016	     -9.64842153	     26.09807575	     23.43981517	     72.69815760
      6.05000000	    -10.77474587	      0.58322618	    -21.88609846	     -0.35811607	      1.20962680	     -0.04897348	     10.50483957	      2.95708744	     23.79186735	      0.72322299	      0.01262262	      8.22629335	     -2.87123024	     -7.49999987	      7.62578078	     -2.21620151	    -11.76093756	      1.31514317	      0.02295358	     11.86277903	     -5.60151422	     -7.49999987	      7.94749165	      1.20047176	    -13.47492427	      1.50045059	     -5.71040348	     19.12142663	     27.90667097	     79.93837465	      1.36781000	     -9.45615636	     25.84958786	     23.34399195	     73.08124837
      6.06666670	    -10.78234365	      0.72634888	    -21.61042031	     -0.36451326	      1.20863556	     -0.04642234	     10.57478607	      2.74945595	     24.30987523	      0.61785838	      0.01078366	      8.65897300	     -2.69919935	     -7.49999987	      7.83320384	     -2.04331126	    -11.57517712	      1.33004990	      0.02321375	     11.87602376	     -5.48405786	     -7.49999987	      7.80357610	      1.10283272	    -13.34725196	      1.57404762	     -5.71393580	     19.12279022	     27.93664682	     79.97579356	      1.37416109	     -9.49546343	     25.81981380	     23.34088842	     73.09373132
      6.08333330	    -10.78120665	      0.87253325	    -21.21140379	     -0.36435974	      1.20801138	     -0.04641087	     10.62642096	      2.55617558	     24.38084047	      0.59771957	      0.01043217	      9.31311486	     -1.91405036	     -7.49999987	      7.99077331	     -1.88459859	    -11.38291653	      1.31936759	      0.02302731	     11.77801170	     -5.55156727	     -7.49999987	      7.74074472	      0.86566772	    -13.00597215	      1.42901610	     -5.62780437	     19.02697056	     27.86699075	     78.58985155	      1.50465579	     -9.46112649	     25.47382529	     23.19750101	     71.99971412
